<?xml version="1.0" encoding="utf-8"?>
<!-- Generator: Adobe Illustrator 22.1.0, SVG Export Plug-In . SVG Version: 6.00 Build 0)  -->
<svg version="1.1" fill="#fff" id="Layer_1" xmlns="http://www.w3.org/2000/svg" xmlns:xlink="http://www.w3.org/1999/xlink" x="0px" y="0px"
	 viewBox="0 0 400 400" style="enable-background:new 0 0 400 400;" xml:space="preserve">
<path d="M175.7,27.6c16.7,0,33.3,0,50,0c5.1,2.5,7.3,6.7,7.7,12.4c0.6,8.2,2,16.3,2.9,24.4c0.2,1.9,0.9,2.8,2.8,3.5
	c9.5,3.7,18.9,7.6,28.3,11.7c1.8,0.8,2.9,0.8,4.5-0.4c7-5.6,14.1-11.2,21.2-16.7c5.2-4.1,10.4-3.8,15.1,0.9
	c10,9.9,19.9,19.9,29.8,29.9c4.7,4.7,4.9,9.8,0.8,15.1c-5.5,7.1-11.1,14.2-16.7,21.2c-1.2,1.4-1.2,2.5-0.5,4.2
	c4.1,9.5,8,19,11.8,28.6c0.7,1.9,1.5,2.6,3.5,2.8c8.2,0.9,16.3,2.3,24.4,2.9c5.7,0.4,9.8,2.5,12.4,7.7c0,16.7,0,33.3,0,50
	c-2.5,5.2-6.7,7.3-12.4,7.7c-8.2,0.6-16.3,2-24.5,2.9c-2,0.2-2.7,1-3.5,2.8c-3.8,9.5-7.7,18.9-11.7,28.3c-0.8,1.8-0.8,2.9,0.4,4.5
	c5.7,7,11.2,14.1,16.7,21.2c4.1,5.2,3.8,10.3-0.9,15.1c-9.8,9.9-19.7,19.8-29.6,29.6c-4.8,4.8-9.9,5.2-15.3,1
	c-7-5.5-14-10.9-21-16.5c-1.5-1.2-2.6-1.4-4.5-0.6c-9.5,4.1-19,8-28.6,11.8c-1.7,0.7-2.5,1.4-2.7,3.2c-1,8.8-2.1,17.6-3.1,26.5
	c-0.8,6.9-4.6,10.5-11.5,10.5c-14,0-27.9,0-41.9,0c-6.8,0-10.7-3.7-11.5-10.6c-1-8.8-2.2-17.6-3.1-26.5c-0.2-1.9-1.1-2.5-2.7-3.2
	c-9.6-3.8-19.1-7.8-28.6-11.8c-1.7-0.7-2.8-0.7-4.2,0.5c-6.9,5.6-13.9,11-20.9,16.5c-5.6,4.4-10.6,4.2-15.6-0.8
	c-9.9-9.9-19.7-19.8-29.6-29.7c-4.6-4.7-4.9-9.9-0.9-15.1c5.5-7.1,11.1-14.2,16.7-21.2c1.1-1.4,1.2-2.5,0.5-4.2
	c-4.1-9.5-8-19-11.8-28.6c-0.7-1.6-1.2-2.5-3.2-2.7c-8.9-1-17.9-2.2-26.8-3.2c-6.6-0.8-10.3-4.7-10.3-11.4c0-13.8,0-27.7,0-41.5
	c0-7.3,3.6-11.1,10.9-11.9c8.6-0.9,17.2-2.1,25.8-3c2.1-0.2,2.9-1.1,3.7-3c3.7-9.4,7.5-18.7,11.5-28c0.8-1.9,0.9-3.1-0.4-4.8
	c-5.7-7-11.2-14.1-16.7-21.2c-3.9-5.1-3.6-10.2,0.9-14.8c9.9-10,19.9-19.9,29.9-29.9c4.7-4.7,9.8-5,15.1-0.9
	c7.1,5.5,14.2,11.1,21.2,16.7c1.4,1.1,2.4,1.3,4.2,0.6c9.6-4.1,19.3-8,28.9-12.1c1-0.4,2.2-1.8,2.4-2.9c1.2-8.2,2.4-16.5,3.1-24.8
	C168.4,34.3,170.5,30.2,175.7,27.6z M114.2,201.1c0.5,47.8,39.4,86.4,86.8,86c47.8-0.3,86.6-39.4,86.2-86.9
	c-0.4-47.9-39.7-86.7-87.1-86C152.2,114.8,113.7,153.8,114.2,201.1z"/>
</svg>
